<?xml version="1.0" standalone="no"?>
<!DOCTYPE svg PUBLIC "-//W3C//DTD SVG 20010904//EN"
 "http://www.w3.org/TR/2001/REC-SVG-20010904/DTD/svg10.dtd">
<svg version="1.0" xmlns="http://www.w3.org/2000/svg"
 width="256.000000pt" height="256.000000pt" viewBox="0 0 256.000000 256.000000"
 preserveAspectRatio="xMidYMid meet">
<metadata>
Created by potrace 1.14, written by Peter Selinger 2001-2017
</metadata>
<g transform="translate(0.000000,256.000000) scale(0.100000,-0.100000)"
fill="#000000" stroke="none">
<path d="M1135 2553 c-567 -72 -1022 -506 -1118 -1068 -18 -102 -17 -335 2
-425 6 -30 13 -64 15 -75 2 -11 9 -32 15 -47 6 -16 9 -28 6 -28 -2 0 11 -38
29 -84 161 -409 482 -687 920 -797 120 -31 386 -34 516 -7 461 95 833 420 975
852 51 156 55 184 59 381 6 239 -24 376 -129 590 -118 243 -317 446 -557 571
-88 45 -270 110 -337 120 -20 3 -47 8 -61 10 -32 7 -295 12 -335 7z"/>
</g>
</svg>
